<svg xmlns="http://www.w3.org/2000/svg" width="180" height="150" viewBox="0 0 180 150"><defs><linearGradient id="shade" x2="0.3" y2="1"><stop stop-color="#fff" stop-opacity=".32"/><stop offset="1" stop-color="#244f50" stop-opacity=".12"/></linearGradient></defs><g stroke-linecap="round" stroke-linejoin="round"><ellipse cx="100" cy="104" rx="65" ry="40" fill="#bfa491" stroke="#816b61" stroke-width="4"/><path d="M110 114q55-53 57-15 5 44-71 36" fill="none" stroke="#816b61" stroke-width="23"/><path d="M110 114q55-53 57-15 5 44-71 36" fill="none" stroke="#bfa491" stroke-width="15"/><path d="M13 49l4-39 36 25 29-18 13 45q17 61-38 61Q-5 113 13 49Z" fill="#d2b9a1" stroke="#816b61" stroke-width="4"/><path d="M22 68q12 13 24 0M61 68q12 13 24 0" fill="none" stroke="#65534d" stroke-width="4"/><path d="M49 81h11l-6 6Z" fill="#b4776a"/><path d="M10 83l24 2M5 95l29-3M76 86h26M79 95l26 5" stroke="#816b61" stroke-width="2"/></g></svg>