<svg xmlns="http://www.w3.org/2000/svg" width="180" height="150" viewBox="0 0 180 150"><defs><linearGradient id="shade" x2="0.3" y2="1"><stop stop-color="#fff" stop-opacity=".32"/><stop offset="1" stop-color="#244f50" stop-opacity=".12"/></linearGradient></defs><g stroke-linecap="round" stroke-linejoin="round"><path d="M18 18q70 15 143-2-16 60 3 120-68-17-148 0 20-61 2-118Z" fill="#edba67" stroke="#ac874a" stroke-width="4"/><path d="M33 33q65 10 112-3-9 54 3 89-61-13-117 0 11-52 2-86Z" fill="none" stroke="#fff0bb" stroke-width="3" stroke-dasharray="5 7"/><path d="M74 49q17-19 34 0 22 16 0 33-17 29-33 0-22-16-1-33Z" fill="#fff1c2"/><circle cx="90" cy="65" r="13" fill="#dda157"/></g></svg>